<?xml version="1.0" ?>
<svg id="Layer_1" style="enable-background:new 0 0 74 74;" version="1.1" viewBox="0 0 74 74" xml:space="preserve" xmlns="http://www.w3.org/2000/svg" ><style type="text/css">
	.st0{fill:#2B3033;}
</style><g><path class="st0" d="M65.8,3.5H8.2c-4,0-7.2,3.2-7.2,7.2v50.5c0,4,3.2,7.2,7.2,7.2h1.2v0c0,1.1,0.9,2,2,2s2-0.9,2-2v0h47.2v0   c0,1.1,0.9,2,2,2s2-0.9,2-2v0h1.2c4,0,7.2-3.2,7.2-7.2V10.7C73,6.8,69.8,3.5,65.8,3.5z M69,61.2c0,1.8-1.4,3.2-3.2,3.2H8.2   C6.4,64.4,5,63,5,61.2V10.7C5,9,6.4,7.5,8.2,7.5h57.6c1.8,0,3.2,1.4,3.2,3.2V61.2z"/><path class="st0" d="M62.6,12h-47c-1.1,0-2,0.9-2,2V58c0,1.1,0.9,2,2,2h47c1.1,0,2-0.9,2-2V14C64.6,12.9,63.7,12,62.6,12z M60.6,56   h-43v-6.6h3c1.1,0,2-0.9,2-2s-0.9-2-2-2h-3V26.5h3c1.1,0,2-0.9,2-2s-0.9-2-2-2h-3V16h43V56z"/><path class="st0" d="M33.9,46.1c0.4,0.4,0.9,0.6,1.4,0.6s1-0.2,1.4-0.6l3.5-3.5c2.3,1.1,5.1,1.1,7.3-0.3l3.7,3.7   c0.4,0.4,0.9,0.6,1.4,0.6c0.5,0,1-0.2,1.4-0.6c0.8-0.8,0.8-2,0-2.8l-3.7-3.7c1.3-2.3,1.4-5,0.3-7.4l3.5-3.5c0.8-0.8,0.8-2,0-2.8   c-0.8-0.8-2-0.8-2.8,0L48,29.2c-2.5-1.7-5.7-1.8-8.3-0.3l-3-3c-0.8-0.8-2-0.8-2.8,0c-0.8,0.8-0.8,2,0,2.8l3,3   c-1.5,2.6-1.4,5.8,0.3,8.3l-3.3,3.3C33.1,44,33.1,45.3,33.9,46.1z M46.3,32.9c1.5,1.5,1.5,3.9,0,5.4c0,0,0,0,0,0   c-1.5,1.5-3.9,1.5-5.4,0c-1.5-1.5-1.5-3.9,0-5.4c0,0,0,0,0,0C42.5,31.4,44.8,31.5,46.3,32.9z"/></g></svg>
